<?xml version="1.0" encoding="utf-8"?>
<!-- Designed by Vexels.com - 2020 All Rights Reserved - https://vexels.com/terms-and-conditions/  -->
<svg version="1.1" id="Layer_1" xmlns="http://www.w3.org/2000/svg" xmlns:xlink="http://www.w3.org/1999/xlink" x="0px" y="0px"
	 viewBox="0 0 1200 1200" enable-background="new 0 0 1200 1200" xml:space="preserve">
<g>
	<path fill="#F9C1C2" d="M747.736,203.382c10.159-0.219,19.024,1.458,27.525,4.979c6.082,2.519,11.556,5.996,16.162,10.748
		c4.199,4.332,7.205,9.36,8.816,15.201c2.273,8.243,0.928,16.053-2.895,23.521c-3.209,6.269-7.889,11.311-13.512,15.488
		c-7.728,5.741-16.391,9.435-25.753,11.515c-13.39,2.975-26.655,2.63-39.721-1.744c-7.79-2.608-14.795-6.569-20.479-12.587
		c-7.489-7.929-10.83-17.264-9.261-28.2c0.539-3.761,1.802-7.273,3.558-10.611c4.362-8.29,10.719-14.885,18.996-18.969
		C722.909,206.931,735.258,202.758,747.736,203.382z"/>
	<path fill="#F9C1C2" d="M520.427,746.324c0,15.219-0.01,30.439,0.004,45.658c0.008,8.32,0.884,16.558,2.176,24.775
		c1.111,7.066,3.005,13.899,5.575,20.546c5.061,13.087,10.689,25.899,17.134,38.398c10.504,20.37,20.226,41.123,27.937,62.759
		c7.398,20.755,12.341,42.078,14.504,63.986c1.107,11.213,1.172,22.515,0.244,33.764c-0.652,7.901-2.423,15.595-5.279,23.031
		c-3.405,8.865-9.318,15.472-17.545,20.122c-6.807,3.848-14.154,6.01-21.83,7.176c-9.198,1.396-18.468,1.936-27.755,2.263
		c-9.084,0.32-18.169,0.634-27.252,0.998c-14.946,0.599-29.327,3.876-43.317,9.086c-12.964,4.828-25.734,10.119-38.373,15.738
		c-10.468,4.654-20.915,9.376-31.947,12.607c-1.326,0.389-2.642,0.825-3.986,1.142c-8.84,2.081-17.521,4.549-25.947,8.078
		c-9.527,3.99-19.494,4.441-29.679,2.378c-9.629-1.951-18.528-5.491-26.773-10.764c-5.771-3.691-10.247-8.664-13.884-14.394
		c-2.592-4.085-3.465-8.771-4.31-13.454c-1.708-9.466-1.486-18.97,0.352-28.314c2.287-11.629,3.946-23.373,6.394-34.957
		c2.611-12.36,5.572-24.666,8.912-36.849c6.27-22.874,11.666-45.94,16.345-69.183c2.066-10.261,4.407-20.471,6.247-30.772
		c1.737-9.718,2.968-19.527,4.444-29.292c2.395-15.848,3.395-31.826,4.405-47.799c0.862-13.645,0.285-27.262-1.116-40.852
		c-2.049-19.878-5.423-39.524-10.28-58.914c-5.25-20.956-12.43-41.219-21.943-60.621c-8.264-16.854-16.878-33.515-26.353-49.745
		c-7.77-13.308-15.414-26.678-23.489-39.814c-8.688-14.133-16.665-28.702-24.958-43.078c-10.385-18.004-15.423-37.651-16.788-58.161
		c-1.206-18.128,1.396-35.782,8.634-52.724c10.081-23.598,34.271-46.201,62.688-52.644c9.276-2.103,18.587-3.659,28.122-3.907
		c20.536-0.533,40.585,2.243,60.171,8.435c18.411,5.82,33.04,16.652,43.542,32.9c3.216,4.976,6.322,10.034,9.236,15.191
		c7.021,12.425,15.075,24.048,24.428,34.893c20.075,23.28,37.269,48.583,51.463,75.889c3.65,7.022,6.784,14.259,9.567,21.669
		c8.836,23.529,15.772,47.63,21.287,72.116c4.388,19.484,6.903,39.247,8.195,59.226
		C520.996,704.055,520.938,725.177,520.427,746.324z"/>
	<path fill="#F0DEC6" d="M611.859,465.246c-45.755-66.991,149.862-139.968,197.646-144.191
		c162.76,0.363,138.635,232.187,11.906,274.174C704.778,648.676,665.31,538.087,611.859,465.246z"/>
	<path fill="#372312" d="M931.815,509.177c-0.237-4.198-0.791-8.423-1.339-12.391c-0.513-3.712-1.883-7.17-4.074-10.277
		c-3.503-4.971-8.839-7.056-14.641-5.725c-4.179,0.96-7.796,3.22-10.748,6.717c-2.079,2.461-3.748,5.124-4.96,7.914
		c-0.946,2.178-1.858,4.404-2.739,6.557c-0.047,0.115-0.095,0.231-0.142,0.346c-0.046-1.791-0.148-3.607-0.434-5.405
		c-0.886-5.571-0.496-11.074,0.061-17.174l0.021-0.232l-1.059-5.521l-2.874-4.28c-1.767-2.632-3.533-5.26-5.297-7.891l-0.672-1.003
		c-5.677-8.471-11.548-17.231-18.635-24.922c-3.891-4.222-7.42-8.64-11.523-13.974c-0.505-0.657-1.017-1.309-1.529-1.962
		c-0.891-1.136-1.812-2.312-2.676-3.483c-4.455-6.043-10.829-10.527-19.485-13.705c-8.98-3.298-18.906-4.902-30.335-4.902
		c-0.103,0-0.207,0-0.311,0.001c-12.086,0.031-23.449,2.816-32.971,5.535c-11.637,3.324-22.832,7.353-36.061,12.38
		c-15.111,5.742-30.774,13.178-47.883,22.73c-10.68,5.963-19.587,11.014-28.407,16.893c-0.146-3.399-0.02-6.556,0.382-9.596
		c1.293-9.801,0.995-19.664,0.732-28.366c-0.51-16.855-1.838-30.663-4.181-43.454l-0.481-2.633
		c-1.445-7.903-2.939-16.076-4.64-24.076c-1.699-7.988-3.626-17.286-4.99-26.541c-1.307-8.869-3.134-16.5-5.586-23.328
		c-1.109-3.089-2.16-6.269-3.175-9.344c-1.015-3.071-2.063-6.246-3.176-9.35c-2.12-5.911-3.061-12.388-2.875-19.802l0.014-0.594
		c0.033-1.405,0.068-2.859,0.173-4.262c0.569-7.713-0.797-15.683-4.179-24.366c-2.561-6.574-4.828-13.455-6.74-20.451
		c-1.396-5.113-2.615-10.385-3.795-15.483c-0.393-1.697-0.785-3.394-1.185-5.089c-0.365-1.55-0.734-3.099-1.102-4.649
		c-1.32-5.554-2.685-11.296-3.891-16.963c-1.497-7.03-2.975-14.19-4.404-21.114c-1.579-7.651-3.213-15.562-4.878-23.334
		c-1.453-6.781-3.138-13.431-4.881-20.214c-0.753-2.929-1.737-6.056-3.01-9.559c-1.499-4.128-3.838-7.774-6.099-11.301
		c-0.751-1.172-1.528-2.383-2.255-3.584c-6.542-10.808-21.217-17.962-34.132-16.647c-2.973,0.304-5.834,0.817-8.504,1.527
		c-1.103,0.293-2.207,0.585-3.311,0.877c-6.447,1.703-13.114,3.465-19.572,5.574c-6.966,2.276-16.12,5.378-25.15,9.201
		c-10.909,4.619-21.933,10.531-33.701,18.075c-15.658,10.037-28.349,20.169-38.798,30.977c-6.412,6.632-12.812,13.482-19,20.107
		c-2.587,2.77-5.175,5.54-7.77,8.301c-10.449,11.121-20.317,23.533-29.328,36.892c-6.359,9.427-11.674,19.885-15.797,31.084
		c-4.472,12.147-7.269,24.539-10.209,38.315c-2.77,12.983-4.305,26.328-5.79,39.233l-0.11,0.952
		c-0.468,4.07-0.902,8.21-1.322,12.213c-0.609,5.809-1.239,11.816-1.983,17.699c-1.453,11.484-2.57,23.573-3.416,36.959
		c-0.125,1.972-0.258,3.945-0.39,5.918c-0.557,8.26-1.132,16.803-1.07,25.267c0.018,2.489-0.065,5.039-0.146,7.504
		c-0.105,3.209-0.214,6.527-0.104,9.811c0.278,8.35,0.784,16.822,1.274,25.015l0.274,4.609c0.171,2.913,0.47,5.85,0.759,8.69
		c0.074,0.728,0.148,1.457,0.22,2.185c0.06,0.606,0.326,1.05,0.56,1.442c0.077,0.128,0.163,0.271,0.249,0.439l1.074,2.115
		l1.606-1.745c1.245-1.353,1.302-2.765,1.34-3.699l0.013-0.281c0.535-9.97,0.157-20.063-0.208-29.823l-0.016-0.432
		c-0.169-4.529-0.335-9.88-0.283-15.22c0.036-3.655,0.22-7.386,0.398-10.994c0.062-1.251,0.124-2.501,0.18-3.752l0.136-3.069
		c0.205-4.647,0.417-9.453,0.695-14.169c0.382-6.498,0.741-12.351,1.261-18.177c1.125-12.605,2.231-24.172,3.381-35.363
		c0.451-4.389,1.023-8.849,1.577-13.164c0.274-2.132,0.547-4.263,0.808-6.396c0.339-2.769,0.671-5.539,1.003-8.309
		c0.637-5.307,1.295-10.794,1.99-16.181c1.915-14.857,5.087-29.756,9.697-45.549c4.3-14.731,10.681-28.357,18.963-40.502
		c7.545-11.062,15.714-21.434,24.28-30.827c1.998-2.19,3.987-4.388,5.977-6.585c7.05-7.785,14.34-15.836,21.859-23.41
		c5.727-5.769,11.023-10.664,16.192-14.963c12.077-10.046,25.328-18.962,39.386-26.5c7.018-3.763,14.607-7.662,22.55-10.681
		c13.872-5.272,28.233-9.724,42.684-13.231c5.515-1.338,10.53-1.389,15.332-0.156c8.958,2.301,15.103,6.704,18.786,13.46
		c0.69,1.266,1.521,2.461,2.247,3.483c3.368,4.741,5.788,10.289,7.397,16.961l0.865,3.581c1.425,5.895,2.899,11.99,4.263,17.999
		c1.724,7.596,3.499,15.705,5.585,25.519c0.722,3.394,1.423,6.856,2.1,10.204c0.863,4.265,1.756,8.675,2.703,13.003
		c0.596,2.723,1.292,5.456,1.966,8.1c0.605,2.374,1.231,4.83,1.776,7.249c0.368,1.635,0.727,3.272,1.085,4.909
		c1.189,5.424,2.414,11.015,3.98,16.487c-3.339-2.097-6.894-3.414-10.583-3.92l-0.965-0.134c-1.962-0.273-3.99-0.556-6.03-0.662
		c-9.346-0.483-19.43,0.327-30.833,2.476c-4.372,0.824-9.027,1.74-13.629,3.069c-17.086,4.933-33.985,12.522-50.228,22.555
		c-12.907,7.973-25.454,17.206-38.359,28.226c-8.577,7.324-16.945,14.941-24.71,22.081c-3.975,3.655-7.652,7.622-10.786,11.053
		c-5.489,6.01-10.072,12.779-14.296,19.197c-7.625,11.589-14.495,24.293-21.001,38.838c-3.996,8.934-7.312,18.012-9.755,24.923
		c-1.209,3.421-2.268,6.938-3.293,10.339c-0.339,1.125-0.678,2.251-1.023,3.375c-0.231,0.756,0.056,1.391,0.228,1.77
		c0.035,0.077,0.075,0.159,0.104,0.247l0.402,1.197l3.404-0.211l0.443-0.759c0.085-0.146,0.172-0.282,0.255-0.413
		c0.219-0.346,0.446-0.704,0.623-1.142c0.645-1.601,1.292-3.2,1.939-4.8c1.914-4.729,3.892-9.62,5.771-14.463
		c4.45-11.474,9.452-22.631,14.866-33.161c4.531-8.811,10.111-17.99,17.059-28.061c4.555-6.603,8.744-11.764,13.182-16.239
		c9.911-9.996,21.038-20.057,35.017-31.662c7.795-6.472,15.979-12.628,24.325-18.298c16.294-11.07,33.439-19.71,50.976-25.691
		c-10.888,6.567-19.986,12.617-28.283,18.794c-5.834,4.344-12.675,9.507-19.182,14.868c-6.119,5.041-12.132,10.33-17.873,15.721
		c-5.153,4.838-10.442,10.173-15.72,15.856c-8.657,9.322-16.828,19.84-24.98,32.155c-12.89,19.472-22.591,37.428-29.657,54.894
		c-2.81,6.945-5.744,14.357-8.023,21.901c-0.807,2.671-1.636,5.336-2.465,8.002c-2.943,9.463-5.987,19.248-7.978,29.194
		c-0.981,4.898-2.024,10.731-2.325,16.851c-0.146,2.983-0.284,5.966-0.421,8.949c-0.12,2.606-0.24,5.212-0.366,7.818
		c-0.017,0.355-0.032,0.71-0.048,1.066c-0.115,2.668-0.223,5.192-1.118,7.792l-1.728,2.462
		c-5.534,7.884-11.242,16.015-16.946,24.105c0.001-0.439,0.014-0.888,0.028-1.344l0.002-0.064c0.097-3.234,0.213-6.469,0.328-9.703
		c0.123-3.453,0.251-7.024,0.353-10.539c0.051-1.747,0.01-3.504-0.029-5.204c-0.013-0.589-0.027-1.178-0.037-1.768
		c-0.074-4.422-0.247-8.907-0.414-13.245c-0.343-8.89-0.698-18.083-0.209-27.099c0.12-2.206,0.186-4.168,0.204-5.997
		c0.006-0.651-0.091-1.26-0.194-1.905c-0.046-0.288-0.096-0.597-0.14-0.939l-0.245-1.893l-4.271,1.21l-0.336,0.553
		c-1.314,2.164-1.553,4.286-1.616,6.256c-0.058,1.822-0.13,3.644-0.2,5.466c-0.183,4.692-0.372,9.544-0.333,14.333
		c0.06,7.323,0.265,14.76,0.463,21.952c0.089,3.224,0.178,6.449,0.255,9.673c0.018,0.768,0.014,1.565-0.013,2.37
		c-0.048,1.431-0.093,2.863-0.138,4.294c-0.13,4.09-0.265,8.319-0.447,12.471c-0.201,4.585-0.456,8.754-0.78,12.745
		c-0.058,0.714-0.296,1.476-0.526,2.212c-0.114,0.365-0.222,0.712-0.305,1.035l-0.121,0.469l0.152,0.46
		c1.032,3.124,1.352,6.207,1.409,9.582c-1.749-2.527-3.589-5.158-5.484-7.755c-2.55-3.495-5.516-6.656-8.385-9.714
		c-0.83-0.884-1.66-1.768-2.48-2.661c-3.51-3.819-7.364-7.362-11.455-10.532c-3.306-2.561-7.23-4.279-12.723-5.571
		c-1.467-0.346-2.977-0.178-4.525,0.042c-5.582,0.79-10.032,3.934-13.607,9.613c-2.125,3.376-3.583,7.155-4.459,11.552
		c-1.542,7.742-1.554,15.471-1.362,22.011c0.386,13.185,3.232,26.891,8.702,41.901c2.856,7.836,5.664,15.503,8.627,23.142
		c3.143,8.105,6.114,15.455,9.081,22.468c3.319,7.844,6.754,15.79,10.076,23.474c1.911,4.42,3.822,8.84,5.721,13.264l0.315,0.734
		c1.167,2.714,2.373,5.519,3.398,8.314c2.868,7.821,5.946,16.361,9.687,26.877c3.784,10.639,9.079,18.75,16.186,24.796
		c2.847,2.422,6.074,5.159,10.588,4.834l0.149-0.011l0.144-0.037c3.481-0.904,6.163-2.882,8.441-6.224
		c2.126-3.117,3.894-6.749,5.566-11.43c0.725-2.031,1.655-3.941,2.64-5.964c0.312-0.642,0.629-1.292,0.941-1.952
		c1.134,7.337,2.089,13.823,2.92,19.821c0.418,3.02,0.805,6.102,1.18,9.082c0.656,5.22,1.334,10.617,2.207,15.907
		c1.949,11.808,4.132,23.5,6.579,36.462c2.629,13.932,6.887,27.153,12.656,39.294c5.66,11.913,12.504,24.599,20.922,38.78
		c2.027,3.416,4.137,6.839,6.177,10.151c0.832,1.35,1.662,2.698,2.487,4.044c-0.024,0.168-0.047,0.332-0.07,0.494
		c-0.097,0.691-0.187,1.329-0.294,1.965c-1.928,11.388-3.998,24.855-4.737,38.388c-0.379,6.938-0.809,14.802,0.138,22.474
		c0.123,1,0.244,2,0.364,3c0.895,7.426,1.82,15.106,3.958,22.52c1.328,4.602,2.953,9.015,4.369,12.724
		c4.102,10.75,8.464,20.022,13.335,28.347l0.109,0.185c4.222,7.215,8.588,14.677,13.128,21.876
		c5.974,9.475,11.175,19.569,15.9,30.86c3.709,8.864,6.174,18.324,7.325,28.117c0.876,7.457,1.695,15.207,2.433,23.034
		c0.995,10.548,1.858,20.883,1.492,31.343c-0.002,0.044-0.007,0.091-0.012,0.14c-0.155,1.563,0.5,2.605,1.947,3.095l1.824,0.617
		l0.327-1.897c0.114-0.662,0.243-1.318,0.371-1.97c0.283-1.44,0.575-2.928,0.701-4.443c0.767-9.193,0.704-19.123-0.194-30.36
		c-0.341-4.272-0.877-8.583-1.395-12.752c-0.381-3.066-0.775-6.237-1.087-9.352c-1.116-11.174-4.391-22.464-10.011-34.516
		c-2.346-5.03-4.997-10.238-8.104-15.921c-2.595-4.745-5.52-9.761-9.208-15.787c-5.106-8.344-9.664-15.899-13.722-23.845
		c-3.964-7.76-7.073-14.785-9.507-21.476c-4.984-13.707-7.549-28.749-7.839-45.984c-0.236-14.002,1.904-28.11,4.013-41.768
		c0.119,0.221,0.237,0.438,0.365,0.647c1.171,1.915,2.323,3.841,3.476,5.768c1.776,2.967,3.612,6.035,5.49,9.018
		c3.235,5.139,6.959,11.282,10.054,17.875c5.272,11.23,8.996,22.587,11.068,33.754c0.774,4.171,1.534,8.345,2.293,12.519
		c0.859,4.723,1.719,9.446,2.6,14.165c0.125,0.673,0.237,1.349,0.351,2.035c0.457,2.759,0.93,5.611,2.318,8.957l3.222,7.766
		l-0.054-8.408c-0.037-5.747-0.627-10.501-1.228-14.877c-1.083-7.88-2.355-15.792-3.457-22.493
		c-1.994-12.123-5.646-23.972-10.854-35.218c-2.855-6.163-6.367-12.017-9.764-17.677c-0.881-1.468-1.761-2.935-2.632-4.409
		c-2.664-4.511-5.306-8.898-8.102-13.542c-1.113-1.848-2.231-3.705-3.355-5.578c1.139-5.881,2.379-11.841,3.579-17.611
		c2.586-12.435,5.257-25.275,7.094-38.117c1.889,2.596,3.765,5.201,5.642,7.806c3.65,5.067,7.425,10.306,11.234,15.395
		c7.711,10.301,16.024,21.33,24.563,32.187c6.976,8.869,15.186,18.064,25.1,28.108l0.7,0.71c3.592,3.647,7.302,7.415,11.819,10.063
		c1.316,2.387,3.314,3.858,5.09,5.165l1.669,1.237c5.337,3.961,10.856,8.056,16.517,11.773c4.92,3.23,9.665,5.576,14.505,7.174
		c7.368,2.433,14.963,3.396,22.11,4.174c5.96,0.649,11.773-0.085,16.17-0.796c5.737-0.93,11.49-2.777,16.2-5.202l0.23-0.119
		l1.772-1.777c0.997-0.999,1.846-1.849,2.689-2.705c0.217-0.22,0.435-0.438,0.653-0.656c0.716-0.717,1.456-1.46,2.154-2.252
		c4.5-5.115,7.844-11.21,10.224-18.632c5.843-18.218,7.171-37.292,7.699-53.547c0.01-0.309-0.022-0.584-0.047-0.805
		c-0.011-0.096-0.024-0.192-0.027-0.288l-0.047-1.361c-0.163-4.809-0.332-9.779-0.475-14.67c0.012-0.024,0.024-0.049,0.037-0.075
		c0,0,0-0.001,0.001-0.002c6.908-4.112,12.721-9.501,17.28-16.026c3.257-4.659,5.593-9.052,7.142-13.43
		c2.472-6.985,0.74-12.399-5.296-16.552c-1.636-1.125-3.588-2.153-5.967-3.141c-4.464-1.853-9.377-2.861-15.93-3.267
		c-8.561-0.534-16.797,0.907-24.428,2.54c-1.772,0.379-3.539,0.777-5.233,1.159c-0.606,0.136-1.202,0.27-1.785,0.401
		c-4.625-1.558-9.58-2.667-15.543-3.477c-7.617-1.035-14.544-0.892-21.177,0.44c-4.032,0.809-7.379,1.976-10.232,3.569
		c-3.224,1.8-4.748,4.252-4.53,7.287l0.018,0.257l0.096,0.239c1.228,3.061,3.87,3.824,5.8,4.382
		c4.838,1.398,10.032,1.66,16.345,0.829c8.118-1.069,16.122-2.952,23.862-4.774c1.203-0.283,2.426-0.532,3.504-0.752
		c0.282-0.057,0.555-0.113,0.814-0.166c12.335,4.978,25.87,20.627,27.043,36.631c-9.62,5.114-18.855,7.671-28.221,7.815
		c-2.308,0.036-5.007,0.011-7.555-0.441c-12.402-2.202-23.785-7.147-33.835-14.699c-11.908-8.949-22.004-18.069-30.866-27.881
		c-2.021-2.237-3.903-4.665-5.814-7.163c-0.231-0.302-0.41-0.799-0.599-1.325c-0.016-0.044-0.032-0.088-0.048-0.132
		c0.194-0.312,0.362-0.579,0.509-0.721l1.762-1.688c2.449-2.35,4.981-4.78,7.547-7.062c7.011-6.234,13.732-11.71,20.547-16.742
		c5.735-4.234,11.997-8.605,18.934-11.889c6.685-3.165,13.424-3.906,20.031-2.203c0.735,0.19,1.474,0.369,2.212,0.548
		c1.306,0.317,2.656,0.644,3.946,1.025c2.477,0.732,5.457,1.474,8.748,1.385c0.459-0.002,1.055,0.16,1.679,0.343
		c0.406,0.118,0.826,0.241,1.273,0.333c0.392,0.081,0.734,0.07,1.093,0.056c0.152-0.006,0.329-0.012,0.546-0.012h0.816l1.601-2.104
		c2.702-1.028,5.343-1.215,8.274-0.589c3.012,0.642,6.502,1.424,9.798,2.588c7.444,2.627,14.407,6.168,20.823,9.604
		c3.122,1.672,5.668,3.508,7.566,5.456c6.032,6.19,13.234,10.832,20.117,14.925c3.195,1.901,7.046,3.96,11.373,4.826
		c3.993,0.8,7.432,0.017,10.227-2.323c1.896-1.587,4.071-3.518,5.825-5.803c3.128-4.072,5.578-8.785,7.284-14.007
		c2.294-7.018,3.299-13.556,3.076-19.99l-0.033-0.949c-0.293-8.44-0.598-17.167-1.156-25.746c-1.136-17.454-0.95-33.338,0.569-48.56
		c0.78-7.815,3.969-14.541,9.479-19.988c5.206-5.147,10.217-9.308,15.321-12.72c7.336-4.905,13.511-8.982,19.804-12.932
		c1.68-1.054,3.363-2.101,5.047-3.148c7.704-4.791,15.671-9.746,23.099-15.347c2.074-1.564,4.238-3.101,6.331-4.589
		c3.857-2.74,7.845-5.574,11.526-8.747l1.501-1.293c7.114-6.13,14.469-12.469,21.59-18.842c1.685-1.508,3.29-3.121,4.842-4.681
		c2.189-2.2,4.453-4.475,6.913-6.415c1.443-1.138,2.645-2.502,3.807-3.821c0.926-1.051,1.801-2.044,2.771-2.907
		c5.123-4.56,10.496-9.508,14.941-15.441c0.279-0.373,0.694-0.735,1.132-1.119c0.14-0.123,0.28-0.245,0.405-0.359
		c0.02-0.015,0.061-0.039,0.109-0.066l3.9,0.195l0.415-1.143c0.12-0.332,0.258-0.653,0.393-0.97
		c0.345-0.812,0.701-1.652,0.826-2.612c0.337-2.587,0.747-6,0.914-9.465c0.443-9.189,3.368-18.035,8.941-27.043
		c2.849-4.606,6.596-7.022,11.139-7.186c2.107,0.489,3.723,1.782,4.937,3.945c1.069,1.906,1.874,3.965,2.328,5.958
		c0.568,2.488,0.947,5.28,1.158,8.537c0.656,10.121,0.227,20.272-1.276,30.172c-2.463,16.226-6.327,31.928-9.783,45.148
		c-1.148,4.39-2.392,8.841-3.596,13.145c-1.15,4.111-2.338,8.362-3.444,12.567c-0.98,3.721-1.851,7.522-2.694,11.199
		c-0.43,1.874-0.859,3.749-1.304,5.619c-2.853,11.995-4.713,22.07-5.851,31.708c-1.433,12.133-3.385,22.029-6.14,31.146
		c-1.422,4.709-3.67,8.666-6.874,12.097c-2.501,2.68-5.262,4.915-8.442,6.835c-5.588,3.373-9.779,7.953-12.455,13.614
		c-2.612,5.523-4.619,11.572-6.317,19.038c-0.229,1.006-0.405,2.026-0.575,3.011c-0.305,1.764-0.592,3.43-1.153,4.969
		c-2.963,8.12-6.547,16.445-10.656,24.742c-4.456,9-9.925,17.651-15.214,26.017c-1.108,1.753-2.216,3.505-3.317,5.263
		c-2.849,4.551-5.819,9.141-8.692,13.579c-2.577,3.981-5.242,8.098-7.816,12.183c-6.712,10.649-12.398,21.827-16.9,33.223
		c-8.726,22.087-13.802,45.364-15.087,69.183c-0.701,12.985-0.725,23.865-0.075,34.241c0.725,11.592,1.727,21.912,3.064,31.55
		c0.648,4.67,1.451,9.329,2.217,13.701c0.293,1.671,0.671,3.331,1.071,5.088c0.169,0.742,0.344,1.51,0.52,2.315
		c-0.246,1.674,0.176,3.491,0.584,5.252c0.069,0.296,0.138,0.593,0.204,0.89c0.306,1.381,0.682,2.75,1.045,4.075
		c0.51,1.861,0.993,3.619,1.304,5.422c1.336,7.721,3.409,15.231,5.45,22.196c4.128,14.087,8.775,28.492,13.811,42.816l0.465,1.324
		c4.043,11.505,8.225,23.401,13.396,34.733c0.596,1.304,1.285,2.636,2.109,4.072c0.575,1.002,1.322,1.349,1.848,1.463
		c0.512,0.111,1.307,0.11,2.191-0.525l0.458-0.329l0.16-0.541c0.573-1.938-0.071-3.6-0.639-5.066l-0.074-0.191
		c-0.647-1.678-1.3-3.353-1.955-5.028c-1.648-4.224-3.354-8.591-4.9-12.92c-4.128-11.551-8.237-23.3-12.214-34.922
		c-8.28-24.2-14.466-48.376-18.388-71.856c-3.266-19.554-5.011-38.813-5.188-57.24c-0.123-12.816,0.464-24.185,1.797-34.76
		c1.132-8.982,2.928-18.267,5.491-28.385c2.52-9.949,6.042-20.067,10.767-30.932c5.358-12.322,12.454-23.936,19.324-34.65
		c7.317-11.412,13.901-21.706,20.382-32.12c3.719-5.977,7.156-12.49,10.732-20.349c-0.133,1.707-0.265,3.462-0.317,5.21
		c-0.541,17.95,0.052,33.995,1.812,49.054c1.04,8.893,3.151,16.343,6.455,22.775c4.037,7.859,9.085,13.062,15.433,15.904l0.246,0.11
		l0.269,0.026c0.316,0.031,0.603,0.054,0.87,0.075c0.488,0.039,0.873,0.07,1.233,0.13c5.02,0.836,9.379-0.805,12.957-4.884
		c1.054-1.202,2.579-3.044,3.646-5.15c2.341-4.624,4.086-8.892,5.333-13.048c2.756-9.182,4.076-18.414,4.918-25.432
		c1.026-8.552,1.57-15.118,1.763-21.291c0.681-21.709,0.161-39.337-1.637-55.475l-0.187-1.699c-0.581-5.309-1.182-10.8-2.722-16.099
		c-1.402-4.824-3.363-9.821-8.184-13.692l-0.237-0.19l-0.288-0.093c-0.24-0.077-0.508-0.169-0.795-0.267
		c-0.758-0.259-1.703-0.58-2.668-0.832c-0.61-0.159-1.198-0.218-1.766-0.274c-0.108-0.011-0.215-0.021-0.32-0.032
		c0.336-0.418,0.658-0.807,0.991-1.18c3.954-4.428,6.621-9.078,8.154-14.215c3.125-10.477,4.99-19.14,5.868-27.266
		c0.69-6.393,1.803-12.857,2.792-18.414c1.275-7.166,2.945-14.408,4.559-21.411l0.492-2.134c1.411-6.133,2.941-12.658,4.766-19.065
		c4.417-15.509,9.439-33.969,13.193-53.292C931.432,532.708,932.458,520.575,931.815,509.177z M424.303,816.834
		c-6.813-14.326-11.618-29.638-14.281-45.509c-1.748-10.414-3.47-20.593-5.323-30.627c-1.603-8.684-2.574-17.521-3.299-25.634
		c0.066,0.139,0.131,0.28,0.197,0.424c3.302,7.229,6.985,14.174,10.949,20.64c1.92,3.134,3.836,6.35,5.688,9.459
		c2.699,4.532,5.489,9.219,8.362,13.76c2.632,4.162,5.508,8.242,8.288,12.189c0.971,1.378,1.942,2.756,2.904,4.138
		c4.853,6.974,9.735,13.921,13.87,19.796c0.898,1.277,1.814,2.541,2.731,3.805c0.917,1.264,1.833,2.528,2.732,3.806
		c0.418,0.594,0.793,1.237,1.155,1.859c0.079,0.136,0.156,0.268,0.233,0.398c-0.279,9.636-6.451,44.188-9.75,55.41
		c-5.647-8.886-11.125-18.377-16.293-28.229c-0.824-1.57-1.661-3.133-2.498-4.697C428.049,824.242,426.066,820.541,424.303,816.834z
		 M376.56,714.172c-0.56,0.95-1.358,1.63-2.438,2.079c-0.905,0.225-1.701,0.117-2.436-0.33c-0.31-0.189-0.626-0.373-0.944-0.558
		c-1.067-0.622-2.075-1.21-2.822-1.951c-3.917-3.887-8.305-8.686-11.157-14.812c-2.937-6.306-5.247-12.769-7.812-20.533
		c-4.11-12.443-9.393-25.744-16.624-41.857c-2.41-5.371-4.656-10.939-6.829-16.324c-1.092-2.706-2.221-5.504-3.358-8.248
		c-3.353-8.085-6.026-15.307-8.171-22.078c-0.592-1.869-1.265-3.859-2.171-5.753c-3.913-8.184-6.671-16.979-9.068-25.263
		c-1.754-6.061-2.896-12.593-3.594-20.556c-0.714-8.141-0.716-15.291-0.008-21.861c0.474-4.404,1.468-8.099,3.036-11.296
		c1.184-2.414,2.752-4.463,4.66-6.092c1.918-1.637,3.86-2.435,5.989-2.435c0.707,0,1.435,0.088,2.19,0.263
		c3.854,0.891,6.518,2.095,8.636,3.903c0.631,0.539,1.268,1.074,1.905,1.609c2.075,1.744,4.22,3.546,6.135,5.464
		c5.803,5.812,11.122,11.808,15.812,17.824c-0.136-0.075-0.272-0.15-0.408-0.225c-0.793-0.437-1.586-0.875-2.383-1.305
		c-4.063-2.191-8.015-3.59-12.082-4.277c-6.081-1.029-11.384,1.2-15.76,6.624c-1.689,2.094-2.991,4.637-3.871,7.561
		c-1.524,5.065-2.03,9.893-1.548,14.76c0.992,10.013,3.635,19.744,7.854,28.922c0.977,2.126,1.838,4.379,2.67,6.558
		c0.438,1.148,0.877,2.296,1.335,3.436l0.198,0.494c0.429,1.076,0.873,2.188,1.422,3.266c7.046,13.849,12.829,25.561,18.151,37.707
		c1.731,3.949,3.526,7.945,5.263,11.809c2.702,6.014,5.497,12.233,8.102,18.4c3.241,7.673,5.746,15.631,8.035,23.125
		c0.839,2.749,1.964,5.344,3.14,7.982c0.836,1.875,2.402,4.448,6.338,5.147l0.391,0.069l0.379-0.116
		c3.754-1.15,7.695-3.345,12.048-6.711c0.682-0.526,0.83-1.29,0.919-1.747c0.012-0.064,0.023-0.128,0.036-0.176l0.393-1.204
		l-1.063-0.689c-0.063-0.041-0.115-0.082-0.159-0.117c-0.235-0.181-0.859-0.663-1.703-0.443l-0.328,0.082
		c-0.58,0.143-1.237,0.304-1.877,0.629c-2.292,1.163-4.571,2.351-6.775,3.499l-1.853,0.964c-0.358-0.068-0.612-0.31-0.941-1.011
		c-0.72-1.533-1.388-3.226-2.103-5.33c-1.006-2.958-2.003-5.979-2.967-8.901c-1.876-5.685-3.816-11.565-5.924-17.289
		c-2.816-7.646-6.123-15.573-10.111-24.233c-1.194-2.594-2.374-5.254-3.515-7.827c-1.551-3.495-3.154-7.109-4.825-10.631
		c-3.401-7.164-6.924-14.413-10.331-21.423c-1.64-3.374-3.28-6.749-4.913-10.127l-0.282-0.579c-0.479-0.981-0.932-1.907-1.275-2.857
		l-0.313-0.868c-1.761-4.878-3.583-9.921-5.265-14.91c-1.948-5.776-3.021-12.126-3.282-19.412
		c-0.144-4.025,0.874-8.034,3.027-11.912c1.937-3.491,4.758-5.362,8.864-5.873c11.759,2.929,20.293,7.75,26.786,15.14
		c0.082,1.238,0.16,2.455,0.237,3.657c0.196,3.064,0.382,5.958,0.604,8.891c0.396,5.219,1.474,10.354,2.517,15.319
		c0.561,2.673,1.142,5.437,1.602,8.158c0.211,1.246,0.374,2.521,0.563,3.997c0.098,0.761,0.202,1.576,0.324,2.469l0.042,0.311
		l0.154,0.274c0.894,1.591,1.335,3.929,1.802,6.404c0.118,0.625,0.237,1.255,0.364,1.881c0.769,3.776,1.518,7.627,2.242,11.351
		c1.191,6.127,2.423,12.462,3.785,18.671c0.945,4.309,2.141,8.615,3.297,12.779c0.581,2.091,1.181,4.253,1.74,6.381
		c0.294,1.121,0.591,2.242,0.888,3.362c1.072,4.046,2.181,8.23,3.144,12.362c2.084,8.941,4.879,17.799,7.581,26.364l0.093,0.293
		c0.196,0.622,0.379,1.249,0.575,1.922l0.165,0.563c-0.034,0.114-0.068,0.229-0.102,0.346c-0.171,0.584-0.348,1.187-0.57,1.737
		c-0.567,1.4-1.13,2.801-1.694,4.202c-1.917,4.765-3.899,9.693-5.973,14.474c-0.699,1.613-1.639,3.131-2.635,4.739
		C377.333,712.892,376.939,713.528,376.56,714.172z M636.894,791.782c5.848-1.27,12.66-2.477,19.591-2.298
		c4.968,0.124,9.258,0.795,13.114,2.052c2.324,0.757,4.613,1.806,6.802,3.116c2.763,1.653,3.636,3.776,2.919,7.099
		c-0.28,1.304-0.823,2.62-1.367,3.848c-2.272,5.123-5.565,10.058-9.788,14.668c-2.72,2.969-5.439,5.185-8.267,6.731
		C655.167,810.787,652.389,805.748,636.894,791.782z M451.701,304.494c6.351-8.405,14.103-16.94,23.699-26.093
		c5.587-5.33,11.403-10.545,16.357-14.944c12.242-10.87,25.626-20.365,35.918-27.423c4.432-3.039,8.982-6.077,13.381-9.015
		c3.052-2.038,6.104-4.076,9.144-6.132c0.159-0.108,0.327-0.21,0.495-0.314c1.023-0.631,2.569-1.585,2.732-3.696l0.026-0.331
		l-0.105-0.315c-0.006-0.018-0.012-0.035-0.018-0.053c3.35-0.899,6.791-1.434,10.38-1.994c1.255-0.196,2.509-0.391,3.761-0.603
		c7.203-1.22,14.338-1.255,20.369-1.128c2.585,0.054,5.253,0.4,7.832,0.735l0.335,0.044c4.885,0.633,8.76,3.073,11.847,7.458
		c4.417,6.275,7.535,13.151,9.268,20.438c1.006,4.23,1.11,8.566,1.088,11.871l-0.009,1.558c-0.013,2.55-0.026,5.187-0.145,7.758
		c-0.27,5.799,0.709,11.858,2.994,18.522c1.283,3.741,2.737,7.982,4.298,12.139c4.012,10.683,6.765,21.317,8.184,31.608
		c0.969,7.03,2.473,14.029,3.927,20.798c0.754,3.51,1.534,7.139,2.227,10.717c1.41,7.284,2.765,14.736,4.142,22.782
		c2.005,11.718,2.709,23.803,3.39,35.491c0.147,2.527,0.294,5.055,0.454,7.58c0.303,4.799,0.195,9.782,0.099,14.177
		c-0.034,1.55-0.209,3.089-0.396,4.718c-0.133,1.157-0.269,2.354-0.35,3.553c-0.393,5.844-0.75,11.804-1.092,18.219
		c-0.056,1.05-0.045,2.094-0.033,3.104c0.01,0.962,0.02,1.871-0.024,2.779c-0.275,5.735-0.566,11.469-0.856,17.203
		c-0.226,4.449-0.451,8.899-0.669,13.348c-0.058,1.19-0.088,2.391-0.116,3.553c-0.039,1.58-0.079,3.214-0.193,4.796
		c-0.296,4.115-0.621,8.299-0.937,12.346c-0.539,6.926-1.096,14.087-1.523,21.145c-0.343,5.681-0.414,11.453-0.483,17.036
		c-0.014,1.085-0.027,2.17-0.042,3.255c-0.237,16.795-0.411,31.814-0.532,45.914c-0.036,4.141,0.121,8.333,0.275,12.408
		c0.249,6.644-0.307,13.409-0.844,19.951l-0.087,1.055c-0.01,0.125-0.043,0.272-0.09,0.442c-0.604-0.07-1.206-0.142-1.805-0.215
		c-2.355-0.284-4.789-0.578-7.209-0.672c-3.68-0.145-7.394-0.072-11.042,0.215c-2.402,0.189-4.74,0.564-7.215,0.961
		c-0.497,0.08-1,0.16-1.507,0.24c-0.001-0.327,0.008-0.63,0.044-0.911c0.706-5.57,1.406-12.178,1.237-18.955
		c-0.086-3.445-0.301-6.93-0.51-10.299c-0.094-1.511-0.187-3.023-0.269-4.534c-0.012-0.223-0.03-0.446-0.047-0.669
		c-0.033-0.412-0.064-0.801-0.051-1.153c0.427-11.423-0.877-22.855-2.139-33.91c-0.161-1.408-0.322-2.817-0.479-4.226
		c-0.483-4.328-0.978-8.656-1.472-12.983c-0.836-7.319-1.701-14.886-2.496-22.332c-0.35-3.273-0.635-6.618-0.912-9.853
		c-0.317-3.704-0.645-7.534-1.071-11.301c-0.875-7.731-1.959-16.868-3.359-26.017c-1.031-6.729-3.128-13.356-6.233-19.695
		c-4.254-8.684-11.063-15.526-20.237-20.335c-4.16-2.181-8.68-3.858-12.953-5.389c-7.776-2.785-14.836-5.162-21.583-7.264
		c-12.081-3.764-23.17-6.312-33.902-7.788c-6.628-0.911-13.383-1.634-19.915-2.332c-3.02-0.323-6.04-0.646-9.058-0.987
		c-0.631-0.071-1.263-0.14-1.895-0.208c-1.773-0.191-3.607-0.389-5.38-0.661c-5.363-0.822-10.739-1.052-15.933-1.052
		c-2.039,0-4.05,0.035-6.02,0.085c-6.118,0.152-12.011,1.902-18.544,5.508c-6.307,3.48-12.409,8.355-19.202,15.341
		c-6.184,6.358-12.008,13.271-17.312,20.545c-0.023,0.032-0.047,0.064-0.072,0.096c-0.039-0.347-0.023-0.771,0.024-1.315
		c0.08-0.92,0.157-1.841,0.235-2.761c0.344-4.078,0.7-8.295,1.247-12.396c0.893-6.694,2.317-13.797,4.62-23.033
		c0.819-3.284,1.467-6.833,1.982-10.852c0.403-3.144,1.343-6.306,2.272-9.275c3.08-9.849,6.702-19.817,11.072-30.475
		c3.142-7.663,7.13-15.111,10.987-22.313l0.291-0.543c0.051-0.096,0.106-0.19,0.161-0.285c0.124-0.215,0.247-0.431,0.352-0.655
		c2.809-5.955,6.492-11.584,10.054-17.027c0.933-1.425,1.865-2.85,2.784-4.282C441.487,318.488,446.192,311.784,451.701,304.494z
		 M733.891,668.275c-1.41,18.696-1.558,34.136-0.467,48.592c0.808,10.706,1.203,20.346,1.205,29.474
		c0.003,8.842-2.821,17.485-8.634,26.421c-2.119,3.257-4.726,4.968-8.923,5.828c-0.432-0.179-0.883-0.36-1.349-0.547
		c-1.466-0.589-2.983-1.2-4.45-1.937c-9.122-4.592-15.886-9.327-21.284-14.902c-2.941-3.037-6.44-5.15-9.16-6.652
		c-10.465-5.779-19.436-9.751-28.232-12.501c-3.371-1.054-6.524-1.577-9.537-1.577c-1.491,0-2.948,0.128-4.38,0.384
		c-0.657,0.117-1.355,0.157-2.164,0.203c-0.042,0.003-0.084,0.005-0.126,0.007c-0.152-0.345-0.282-0.657-0.367-0.958
		c-2.121-7.493-3.591-14.52-4.495-21.483c-0.749-5.769-0.517-11.544-0.189-17.445c0.05-0.906,0.338-1.882,0.642-2.914
		c0.093-0.314,0.187-0.633,0.277-0.96l3.193-1.845c1.524,0.359,3.019,0.723,4.496,1.082c3.986,0.969,7.752,1.885,11.621,2.612
		c3.23,0.606,6.483,0.71,10.096,0.777c4.08,0.073,8.177-1.203,12.525-3.906c7.174-4.46,10.05-12.167,7.89-21.145
		c-1.03-4.279-3.406-8.221-7.265-12.052c-3.309-3.284-6.664-6.438-10.392-9.924c-2.346-2.194-4.553-3.703-6.946-4.747
		c-2.698-1.177-5.33-2.46-8.117-3.819c-0.925-0.451-1.86-0.907-2.811-1.365c-0.062-0.671-0.125-1.365-0.086-2.001
		c0.041-0.644,0.147-1.305,0.26-2.005c0.123-0.767,0.251-1.56,0.299-2.387c0.739-12.869,0.883-24.22,0.441-34.702
		c-0.053-1.24,0.021-2.491,0.099-3.815c0.058-0.981,0.117-1.996,0.122-3.015c0.025-5.38,0.037-10.761,0.049-16.141
		c0.016-7.011,0.032-14.261,0.077-21.39c0.064-9.956,0.343-18.075,0.879-25.552c0.239-3.333,0.52-6.724,0.791-10.003
		c0.771-9.328,1.569-18.973,1.524-28.558c-0.021-4.512,0.359-9.137,0.727-13.611c0.175-2.122,0.355-4.315,0.491-6.481
		c0.02-0.314,0.039-0.628,0.058-0.942l0.587,0.435c1.826,1.353,3.692,0.431,4.489,0.038l1.492-0.735
		c2.57-1.266,5.227-2.575,7.812-3.943c14.64-7.747,30.48-14.355,48.424-20.201c17.376-5.661,37.974-12.184,59.011-17.641
		c3.769-0.978,7.669-1.79,11.441-2.575c0.779-0.162,1.558-0.324,2.336-0.488c-3.262,2.654-6.698,5.42-10.234,8.24
		c-1.547,1.234-3.09,2.474-4.633,3.713c-4.153,3.337-8.446,6.787-12.753,10.053c-7.708,5.846-14.964,12.402-21.981,18.742
		l-0.653,0.589c-8.219,7.424-16.251,14.914-23.873,22.261c-9.011,8.686-16.201,19.03-21.371,30.747
		c-0.27,0.612-0.549,1.221-0.828,1.83c-1.176,2.568-2.392,5.224-2.986,8.159l-0.096,0.457c-0.338,1.585-0.758,3.556,0.545,5.733
		l0.605,1.01l1.151-0.245c0.125-0.027,0.315-0.046,0.517-0.067c0.692-0.071,1.64-0.167,2.388-0.82
		c1.229-1.072,2.425-2.37,3.555-3.857c6.824-8.983,15.083-16.556,24.547-22.508c1.41-0.887,2.905-1.629,4.476-2.381
		c-2.544,3.92-4.411,7.289-5.859,10.569c-1.706,3.865-2.812,8.092-3.481,13.301c-0.37,2.883,0.273,5.275,2.023,7.528l0.359,0.461
		l0.569,0.132c0.225,0.052,0.469,0.122,0.727,0.196c0.725,0.206,1.627,0.463,2.589,0.518c3.035,0.176,5.989,0.212,8.478,0.225
		c4.758,0.024,9.458-0.001,13.829-0.031c2.853-0.02,5.706-0.018,8.562-0.017c6.755,0.002,13.744,0.006,20.621-0.283
		c12.81-0.539,24.223-2.483,34.892-5.943c5.416-1.756,10.55-4.442,15.079-6.811c2.808-1.469,5.719-2.903,8.534-4.29
		c1.104-0.544,2.212-1.09,3.321-1.641c2.94,0.678,5.813,1.753,8.597,2.795c1.541,0.577,3.134,1.173,4.733,1.701
		c4.253,1.405,8.774,3.092,14.226,5.31c1.728,0.703,3.507,1.314,5.227,1.905c2.29,0.787,4.643,1.596,6.896,2.63
		c-0.648,0.936-1.431,1.751-2.244,2.598c-0.368,0.383-0.733,0.764-1.084,1.153c-3.457,3.831-7.032,7.679-10.489,11.401
		c-1.186,1.277-2.371,2.553-3.554,3.831c-6.791,7.336-13.543,13.709-20.643,19.483c-0.787,0.64-1.537,1.318-2.299,2.013
		c-11.552,10.539-25.066,20.57-42.531,31.57c-8.427,5.307-16.963,10.75-25.217,16.014l-2.303,1.468
		c-7.776,4.959-14.773,10.764-20.796,17.254C738.305,651.187,734.563,659.367,733.891,668.275z M662.167,687.381
		c1.385,1.026,2.874,1.935,4.276,2.766c0.593,0.351,1.214,0.587,1.815,0.817c0.073,0.028,0.147,0.056,0.222,0.085
		c-2.832,1.302-5.815,1.878-9.039,1.75c-5.662-0.223-11.16-1.463-16.716-2.932c2.209-1.687,4.36-2.942,6.545-3.819
		C654.112,684.103,658.331,684.54,662.167,687.381z M633.899,653.251c-6.542,3.301-12.263,4.263-18.005,3.028
		c-0.454-0.098-0.909-0.189-1.307-0.268l-0.306-0.061c-3.246-1.454-4.374-3.422-3.785-6.677c1.946-1.268,4.323-1.507,6.827-1.759
		c0.395-0.039,0.788-0.079,1.178-0.122c7.305-0.812,13.513-0.966,19.699,0.855C637.723,650.391,636.306,652.036,633.899,653.251z
		 M601.591,651.691c-0.181,0.505-0.387,1.079-0.475,1.722c-0.086,0.627-0.209,1.255-0.341,1.92
		c-0.124,0.628-0.252,1.278-0.349,1.941c-0.199,1.369-0.324,2.774-0.434,4.014c-0.027,0.312-0.058,0.624-0.088,0.936
		c-0.113,1.178-0.23,2.395-0.228,3.633c0.002,0.893,0.103,1.752,0.2,2.582c0.059,0.505,0.115,0.983,0.148,1.455
		c0.037,0.527,0.053,1.056,0.069,1.585c0.023,0.782,0.048,1.592,0.136,2.413c0.099,0.918,0.263,1.809,0.426,2.674
		c-0.056-0.011-0.11-0.021-0.158-0.031c-0.145-0.028-0.289-0.057-0.432-0.08c-9.109-1.512-17.163,1.497-23.926,8.946
		c-0.799,0.88-1.345,1.906-1.826,2.81c-0.218,0.41-0.309,0.823-0.362,1.192c-1.459-1.876-1.749-4.201-1.706-7.221
		c0.08-5.616,2.068-10.701,5.909-15.113c6.293-7.229,14.18-12.404,23.441-15.389C601.594,651.684,601.593,651.687,601.591,651.691z
		 M581.168,689.831c0.294-0.311,0.573-0.604,0.855-0.871c3.19-3.008,6.897-4.866,11.331-5.68c3.25-0.596,6.257-0.143,8.934,1.347
		c2.976,1.657,5.696,3.632,8.112,5.89l-2.99,0.226c-5.943,0.45-12.089,0.917-18.133,1.268c-3.719,0.217-6.949,0.05-9.849-0.523
		C580.092,690.967,580.647,690.381,581.168,689.831z M622.39,690.525c-0.557-0.407-1.119-0.815-1.684-1.226
		c-1.528-1.11-3.108-2.257-4.633-3.428c-1.523-1.171-3.051-2.412-4.529-3.611c-0.582-0.473-1.166-0.946-1.752-1.418
		c-2.211-4.096-2.455-8.613-2.712-13.39c-0.069-1.28-0.14-2.603-0.252-3.909c-0.118-1.373-0.049-2.551,0.226-3.634
		c0.035,0.03,0.071,0.06,0.107,0.09c1.15,0.966,2.339,1.965,4.006,2.503c4.327,1.393,8.664,1.816,12.891,1.256
		c4.194-0.556,8.164-1.775,11.801-3.624c4.824-2.453,7.684-5.536,9.002-9.701c6.049,1.616,10.505,3.826,13.983,6.928
		c3.914,3.491,7.61,7.134,11.69,11.192c3.68,3.661,5.413,8.203,5.151,13.498c-0.127,2.576-0.988,4.558-2.686,6.136l-0.315-0.454
		c-3.374-4.862-7.887-7.959-13.798-9.464c-4.666-1.188-9.415-0.393-14.947,2.503c-2.878,1.506-5.798,3.535-9.188,6.384
		c-2.234,1.878-4.319,3.322-7.138,4.225L622.39,690.525z M745.663,510.28c1.212-3.561,3.341-6.599,5.815-9.867
		c11.755-2.911,28.654-1.423,37.937,3.29c-0.534,7.289-3.012,13.802-7.373,19.372c-2.945,3.761-5.83,6.218-9.079,7.731
		c-1.884,0.877-3.983,1.487-6.605,1.922c-5.826,0.966-10.308-1.343-13.042-3.45c-4.557-3.511-7.719-9.2-8.25-14.847
		C744.946,513.15,745.135,511.831,745.663,510.28z M741.129,504.32c-0.189,0.46-0.389,0.917-0.588,1.372
		c-0.395,0.902-0.804,1.835-1.138,2.814c-0.399,1.17-0.715,2.375-0.97,3.343c-0.098,0.372-0.189,0.72-0.276,1.03l-0.071,0.254
		l0.012,0.263c0.336,7.439,2.964,13.413,8.03,18.263c0.985,0.942,2.009,1.854,3.001,2.735c0.211,0.188,0.423,0.377,0.634,0.565
		c-7.182,0.433-20.072-0.529-25.603-2.001c0.841-8.451,7.412-20.912,15.8-29.796l0.265-0.083c0.585-0.184,1.244-0.391,1.906-0.586
		c0.018-0.005,0.036-0.011,0.055-0.016C741.822,503.013,741.417,503.618,741.129,504.32z M780.331,534.225
		c6.321-4.598,11.012-10.963,13.96-18.951c0.682-1.849,1.086-3.77,1.477-5.627c0.154-0.732,0.307-1.463,0.478-2.188
		c0.103-0.44,0.18-0.878,0.262-1.386c0.884,0.222,1.592,0.404,2.221,0.669c5.767,2.432,11.651,4.989,16.714,7.195
		c3.246,1.415,6.485,2.849,9.679,4.264l2.311,1.023c-1.278,0.652-2.553,1.308-3.829,1.965c-3.611,1.858-7.346,3.78-11.058,5.563
		c-5.632,2.705-12.109,4.577-19.799,5.721C787.828,533.203,783.961,533.75,780.331,534.225z M853.931,435.555
		c-2.124-1.162-4.273-2.377-6.35-3.551c-1.463-0.827-2.927-1.654-4.396-2.472c-4.111-2.288-8.542-3.659-12.334-4.698
		c-7.035-1.927-15.334-4.027-23.999-5.15c4.45-3.446,8.846-6.069,13.422-8.01l0.305-0.129c0.87-0.366,1.77-0.745,2.622-1.312
		c0.651-0.433,1.182-0.951,1.743-1.498c0.016-0.016,0.032-0.031,0.048-0.047c6.646,2.545,13.402,5.678,18.015,12.111
		c2.347,3.273,4.893,6.461,7.354,9.544c0.795,0.996,1.591,1.992,2.381,2.992c0.67,0.849,1.389,1.651,2.084,2.427
		c0.153,0.171,0.307,0.343,0.459,0.514C854.83,436.04,854.378,435.799,853.931,435.555z M816.841,406.67
		c-6.788,2.719-12.647,7.007-18.002,11.302c-0.417,0.335-0.848,0.653-1.29,0.98c-0.113,0.084-0.227,0.168-0.342,0.254
		c-0.078,0.013-0.156,0.027-0.233,0.04c-0.406,0.071-0.789,0.138-1.14,0.159c-9.298,0.575-19.079,2.564-30.782,6.259
		c-3.299,1.042-6.7,1.997-9.99,2.921c-3.253,0.914-6.618,1.859-9.907,2.893l-1.773,0.558c-15.648,4.919-31.828,10.005-47.454,15.966
		c-10.181,3.884-20.35,8.583-31.089,14.366c-0.83,0.447-1.663,0.89-2.495,1.332c-1.904,1.011-3.871,2.057-5.784,3.148
		c-1.077,0.613-2.016,1.371-2.924,2.105l-0.462,0.372c-0.497,0.397-0.688,0.929-0.788,1.289c0.073-1.263,0.143-2.529,0.214-3.801
		l0.121-2.18c0.123-0.1,0.244-0.2,0.364-0.299c0.593-0.488,1.153-0.948,1.721-1.33c13.381-8.993,27.551-16.596,41.255-23.949
		c1.046-0.561,2.087-1.134,3.128-1.707c2.646-1.455,5.383-2.96,8.138-4.229c16.321-7.515,30.245-13.042,43.819-17.395
		c1.149-0.368,2.272-0.8,3.359-1.218c0.884-0.34,1.798-0.692,2.693-0.995c10.577-3.582,21.762-6.264,33.243-7.97
		c5.947-0.883,11.914-0.885,17.734-0.003c1.19,0.18,2.393,0.305,3.557,0.426C813.488,406.144,815.185,406.321,816.841,406.67z
		 M860.717,523.721c-3.174-1.212-6.424-2.354-9.566-3.459c-3.57-1.255-7.261-2.553-10.83-3.949
		c-8.124-3.177-16.234-6.537-24.104-9.985c-10.311-4.517-18.805-7.882-26.731-10.59c-8.073-2.759-16.065-4.128-24.188-4.128
		c-3.835,0-7.7,0.305-11.614,0.914c-14.186,2.206-26.427,6.696-37.423,13.727c-5.932,3.793-11.244,8.105-15.838,12.852
		c3.421-6.268,7.355-11.982,11.725-17.025c4.72-5.447,10.073-10.488,15.249-15.363l0.644-0.606
		c13.094-12.337,25.459-23.158,37.8-33.08c7.029-5.651,14.133-11.446,21.002-17.049c3.472-2.832,6.945-5.665,10.422-8.491
		c0.401-0.326,0.835-0.64,1.254-0.944c0.082-0.06,0.163-0.119,0.244-0.177c2.673-0.346,5.249,0.015,7.972,0.397l0.117,0.016
		c9.923,1.39,19.642,3.749,28.888,7.011c3.437,1.213,6.774,2.897,10.2,5.149c6.422,4.221,12.333,6.84,18.55,8.214
		c0.321,0.403,0.647,0.805,0.975,1.209c0.953,1.176,1.939,2.392,2.803,3.634c1.944,2.796,3.899,5.658,5.789,8.427
		c3.041,4.453,6.185,9.057,9.38,13.524c2.067,2.891,2.297,5.951,2.005,9.655c-0.042,0.523-0.091,1.048-0.14,1.574
		c-0.203,2.165-0.413,4.404-0.1,6.631c0.678,4.813,0.763,9.775,0.844,14.574c0.039,2.28,0.079,4.637,0.182,6.964
		c0.102,2.323,0.075,4.714,0.049,7.026c-0.011,0.944-0.021,1.888-0.024,2.831c-1.657,3.136-3.266,5.969-5.575,8.493
		c-0.068-0.021-0.136-0.043-0.204-0.064c-0.83-0.26-1.614-0.505-2.36-0.808c-2.07-0.841-4.132-1.702-6.194-2.563
		C868.266,526.737,864.488,525.16,860.717,523.721z M375.132,495.277c1.545-2.208,3.142-4.491,4.774-6.676
		c0.468-0.627,0.942-1.249,1.44-1.901c0.261,19.859,2.909,40.119,7.875,60.238c0.715,2.899,1.523,5.816,2.304,8.637
		c1.071,3.87,2.179,7.871,3.048,11.832c0.801,3.648,2.226,7.009,3.604,10.259c0.586,1.383,1.193,2.814,1.733,4.227
		c3.314,8.68,6.807,17.453,10.183,25.937c1.129,2.836,2.258,5.672,3.383,8.51c0.407,1.027,0.811,2.054,1.215,3.082
		c1.383,3.518,2.812,7.156,4.344,10.695c4.129,9.539,7.67,19.455,10.665,28.001c3.169,9.043,6.518,18.314,9.473,26.493
		c4.187,11.588,7.429,23.617,10.048,33.855l0.414,1.615c2.143,8.368,4.359,17.021,5.893,25.645
		c2.009,11.295,3.858,23.469,3.787,35.964c-0.01,1.771,0.035,3.559,0.079,5.288c0.042,1.659,0.086,3.375,0.079,5.05
		c-0.003,0.607-0.047,1.233-0.108,1.858c-3.096-4.31-6.28-8.753-9.392-13.222c-1.378-1.979-2.763-3.954-4.148-5.929
		c-4.112-5.863-8.364-11.926-12.344-18.005c-12.111-18.498-21.005-34.244-27.99-49.553c-0.73-1.599-1.525-3.185-2.295-4.718
		l-0.105-0.211c-3.612-7.201-6.258-14.818-8.09-23.285c-0.944-4.363-2.22-8.699-3.454-12.893c-0.507-1.725-1.032-3.508-1.524-5.262
		l-0.079-0.282c-0.298-1.066-0.606-2.169-1.099-3.238c-2.93-6.354-4.472-13.325-5.832-19.476c-0.453-2.049-0.944-4.118-1.418-6.12
		c-0.427-1.803-0.855-3.607-1.261-5.415c-1.325-5.906-1.833-11.789-2.317-18.317c-0.371-5.002-1.406-9.997-3.078-14.847
		c-0.618-1.793-1.103-3.627-1.44-5.452c-0.659-3.56-1.299-7.187-1.918-10.696c-0.842-4.772-1.714-9.708-2.645-14.553
		c-1.736-9.032-2.83-18.788-3.547-31.633l-0.13-2.373c-0.247-4.578-0.503-9.311-1.037-13.959c-0.338-2.936,0.458-5.439,2.504-7.877
		C369.765,502.945,372.493,499.047,375.132,495.277z M515.698,869.433c-7.22-8.433-13.961-17.497-20.479-26.263
		c-1.106-1.487-2.211-2.974-3.32-4.458c-5.804-7.774-11.571-15.786-17.149-23.535c-2.399-3.332-4.798-6.665-7.208-9.991
		c-0.305-0.421-0.596-0.853-0.95-1.377c-0.114-0.169-0.235-0.348-0.364-0.538c-0.002-0.399-0.006-0.811-0.01-1.233
		c-0.013-1.387-0.026-2.822,0.021-4.266c0.252-7.676,0.453-15.198,0.146-22.814c-0.358-8.904-1.512-18.466-3.629-30.094
		c-2.846-15.632-7.168-31.133-11.353-46.142c-1.492-5.352-3.337-10.675-5.122-15.823l-0.242-0.697
		c-1.66-4.792-3.391-9.645-5.065-14.338c-1.531-4.294-3.114-8.733-4.637-13.108c-3.034-8.714-6.51-17.4-9.871-25.801l-1.131-2.826
		c-5.213-13.049-9.102-23.115-12.611-32.638c-2.439-6.62-4.685-13.455-6.857-20.064c-0.456-1.387-0.912-2.775-1.369-4.16
		c-4.338-13.134-7.129-24.79-8.532-35.633c-0.22-1.697-0.443-3.395-0.667-5.092c-1.067-8.102-2.171-16.48-2.811-24.732
		c-0.821-10.577-0.764-21.469-0.702-32.011c0.807-1.125,1.608-2.249,2.408-3.371c1.933-2.712,3.931-5.516,5.944-8.217
		c6.58-8.827,14.101-16.824,22.353-23.768c3.96-3.332,8.652-6.147,14.345-8.606c4.384-1.893,9.037-1.958,13.963-2.026
		c0.647-0.009,1.295-0.018,1.941-0.031c4.844-0.101,9.781,0.466,14.555,1.013c1.475,0.169,2.951,0.338,4.427,0.49l1.045,0.107
		c7.86,0.805,15.988,1.637,23.954,2.612c5.719,0.701,10.318,1.439,14.471,2.322c16.31,3.471,29.342,7.161,41.012,11.612
		c1.978,0.754,3.995,1.49,5.945,2.201c2.453,0.895,4.99,1.82,7.453,2.784c7.73,3.027,14.21,8.277,19.262,15.605
		c1.72,2.495,3.116,5.382,4.528,9.361c2.54,7.16,4.139,14.909,4.89,23.69c0.178,2.072,0.424,4.158,0.663,6.177
		c0.145,1.223,0.289,2.447,0.42,3.672c0.351,3.298,0.697,6.596,1.042,9.895c0.528,5.044,1.057,10.089,1.606,15.131
		c0.429,3.948,0.875,7.895,1.321,11.842c0.56,4.96,1.139,10.089,1.674,15.135l0.195,1.843c1.028,9.688,2.09,19.706,2.964,29.567
		c0.207,2.334,0.199,4.764,0.192,7.114c-0.005,1.517-0.01,3.085,0.042,4.639c0.102,3.116,0.234,6.28,0.361,9.34
		c0.168,4.051,0.342,8.239,0.45,12.354c0.164,6.316-0.729,12.631-1.693,19.303c-0.371,0.133-0.733,0.263-1.088,0.39
		c-1.326,0.476-2.578,0.925-3.819,1.345c-7.726,2.61-14.637,6.567-20.542,11.76c-2.998,2.638-5.394,5.183-7.324,7.782
		c-4.463,6.008-6.387,12.965-5.72,20.678c0.6,6.947,4.652,11.424,11.408,12.606c4.441,0.777,8.403,1.088,12.114,0.959
		c9.229-0.327,16.978-0.788,24.791-1.973c1.257-0.191,2.552-0.283,3.923-0.381c0.519-0.037,1.044-0.074,1.58-0.118
		c0.977,0.451,1.992,0.659,2.979,0.861c0.89,0.182,1.744,0.357,2.518,0.703c-0.566,4.728-0.552,9.421-0.35,14.916
		c0.201,5.483,1.173,10.826,2.068,15.404c0.706,3.609,1.568,7.2,2.402,10.672c0.277,1.156,0.553,2.304,0.821,3.445
		c-0.411,0.145-0.899,0.075-1.7-0.086l-0.067-0.013c-2.714-0.547-5.443-1.298-8.007-2.02c-3.933-1.108-7.755-1.621-11.681-1.556
		c-5.828,0.091-11.479,1.594-17.274,4.597c-7.317,3.792-13.925,8.499-18.864,12.176c-10.292,7.661-19.948,15.884-28.703,24.441
		c-0.23,0.225-0.466,0.447-0.702,0.67c-1.515,1.428-3.231,3.047-3.907,5.678l-0.136,0.529l0.208,0.506
		c1.82,4.434,4.07,8.1,6.878,11.205c7.843,8.673,15.196,15.804,22.48,21.802c1.025,0.844,2.053,1.738,3.047,2.603
		c1.457,1.268,2.964,2.579,4.532,3.796c7.259,5.628,14.104,9.807,20.927,12.778c8.883,3.867,16.607,5.885,24.309,6.35
		c10.07,0.608,20.172-1.374,30.025-5.889l0.565-0.259c0.933-0.428,1.891-0.868,2.846-1.286c0.083,0.312,0.144,0.605,0.15,0.862
		c0.02,0.821,0.043,1.642,0.065,2.464c0.102,3.699,0.206,7.524,0.078,11.252l-0.006,0.171c-0.263,7.665-0.534,15.591-1.574,23.298
		c-1.612,11.943-3.822,21.601-6.954,30.396c-1.699,4.77-4.591,9.301-8.596,13.466c-1.759,1.83-4.166,3.263-6.494,4.648
		c-0.549,0.327-1.096,0.653-1.635,0.983c-4.399,2.696-9.697,4.156-16.674,4.593c-8.694,0.546-17.687-0.559-26.724-3.282
		c-3.809-1.148-7.792-2.972-12.177-5.577c-9.637-5.724-19.142-12.971-29.912-22.806
		C533.107,889.542,523.695,878.774,515.698,869.433z M610.714,790.461c-0.228,0.046-0.457,0.091-0.686,0.136
		c-4.435,0.879-9.02,1.789-13.543,2.492c-4.424,0.689-8.304,0.635-11.831-0.165c0.226-0.089,0.453-0.178,0.679-0.268
		c1.736-0.686,3.376-1.333,5.065-1.728C596.356,789.533,602.881,789.377,610.714,790.461z M863.289,838.084
		c-1.278-3.45-2.235-7.066-2.861-10.812c-0.469-2.805-0.83-5.609-1.113-8.401c0.739,4.997,1.667,9.874,2.78,14.601
		C862.472,835.075,862.869,836.61,863.289,838.084z M878.219,854.958c-0.994-1.326-1.932-2.578-2.904-3.824
		c-2.693-3.454-4.09-7.511-5.568-11.806l-0.371-1.075c-2.468-7.116-3.672-14.717-4.837-22.067l-0.042-0.264
		c-1.22-7.693-1.752-15.968-1.626-25.296c0.171-12.56,0.347-25.547,1.722-38.279c1.184-10.963,3.28-19.607,6.598-27.206
		c0.849-1.943,1.663-3.657,2.489-5.244c1.494-2.869,3.866-5.228,7.69-7.648c1.105-0.699,2.379-1.023,3.758-0.96
		c0.981,0.042,1.977,0.173,2.856,0.288c0.285,0.037,0.556,0.073,0.807,0.103c1.978,0.799,2.995,2.187,3.978,4.151
		c1.575,3.147,2.542,6.035,2.956,8.829l0.214,1.438c0.619,4.155,1.259,8.451,1.756,12.678c1.011,8.612,1.544,17.324,1.584,25.894
		c0.015,3.327,0.119,6.699,0.219,9.96c0.128,4.171,0.26,8.483,0.207,12.705c-0.209,16.625-2.196,32.606-5.909,47.499
		c-1.046,4.196-2.256,8.618-4.507,12.517c-1.652,2.86-3.055,4.907-4.548,6.637c-1.755,2.035-3.418,2.767-5.47,2.374
		C878.914,855.885,878.564,855.418,878.219,854.958z"/>
</g>
</svg>
